<?xml version="1.0" encoding="UTF-8" standalone="no"?><!DOCTYPE svg PUBLIC "-//W3C//DTD SVG 1.1//EN" "http://www.w3.org/Graphics/SVG/1.1/DTD/svg11.dtd"><svg width="100%" height="100%" viewBox="0 0 36 60" version="1.1" xmlns="http://www.w3.org/2000/svg" xmlns:xlink="http://www.w3.org/1999/xlink" xml:space="preserve" xmlns:serif="http://www.serif.com/" style="fill-rule:evenodd;clip-rule:evenodd;stroke-linejoin:round;stroke-miterlimit:1.41421;"><path d="M17.676,0c-0.729,0 -1.328,0.234 -1.797,0.703c-0.468,0.469 -0.703,1.068 -0.703,1.797l0,48.906l-10.781,-10.625c-1.146,-1.25 -2.318,-1.276 -3.516,-0.078c-1.198,1.198 -1.172,2.37 0.078,3.516l15,15c0.209,0.312 0.469,0.521 0.782,0.625c0.625,0.208 1.25,0.208 1.875,0c0.312,-0.104 0.573,-0.313 0.781,-0.625l15,-15c1.25,-1.146 1.276,-2.318 0.078,-3.516c-1.198,-1.198 -2.37,-1.172 -3.516,0.078l-10.781,10.625l0,-48.906c0,-0.729 -0.234,-1.328 -0.703,-1.797c-0.469,-0.469 -1.068,-0.703 -1.797,-0.703Z" style="fill:#fff;fill-rule:nonzero;"/></svg>