<?xml version="1.0" encoding="UTF-8" standalone="no"?><!DOCTYPE svg PUBLIC "-//W3C//DTD SVG 1.1//EN" "http://www.w3.org/Graphics/SVG/1.1/DTD/svg11.dtd"><svg width="100%" height="100%" viewBox="0 0 65 65" version="1.1" xmlns="http://www.w3.org/2000/svg" xmlns:xlink="http://www.w3.org/1999/xlink" xml:space="preserve" xmlns:serif="http://www.serif.com/" style="fill-rule:evenodd;clip-rule:evenodd;stroke-linejoin:round;stroke-miterlimit:1.41421;"><path d="M32.5,0c-4.479,0 -8.698,0.846 -12.656,2.539c-3.959,1.693 -7.409,4.01 -10.352,6.953c-2.943,2.943 -5.26,6.393 -6.953,10.352c-1.693,3.958 -2.539,8.177 -2.539,12.656c0,4.479 0.846,8.698 2.539,12.656c1.693,3.959 4.01,7.409 6.953,10.352c2.943,2.943 6.393,5.26 10.352,6.953c3.958,1.693 8.177,2.539 12.656,2.539c4.479,0 8.698,-0.846 12.656,-2.539c3.959,-1.693 7.409,-4.01 10.352,-6.953c2.943,-2.943 5.26,-6.393 6.953,-10.352c1.693,-3.958 2.539,-8.177 2.539,-12.656c0,-4.479 -0.846,-8.698 -2.539,-12.656c-1.693,-3.959 -4.01,-7.409 -6.953,-10.352c-2.943,-2.943 -6.393,-5.26 -10.352,-6.953c-3.958,-1.693 -8.177,-2.539 -12.656,-2.539Zm0,60c-3.802,0 -7.37,-0.716 -10.703,-2.148c-3.333,-1.433 -6.25,-3.399 -8.75,-5.899c-2.5,-2.5 -4.466,-5.417 -5.899,-8.75c-1.432,-3.333 -2.148,-6.901 -2.148,-10.703c0,-3.802 0.716,-7.37 2.148,-10.703c1.433,-3.333 3.399,-6.25 5.899,-8.75c2.5,-2.5 5.417,-4.466 8.75,-5.899c3.333,-1.432 6.901,-2.148 10.703,-2.148c3.802,0 7.37,0.716 10.703,2.148c3.333,1.433 6.25,3.399 8.75,5.899c2.5,2.5 4.466,5.417 5.899,8.75c1.432,3.333 2.148,6.901 2.148,10.703c0,3.802 -0.716,7.37 -2.148,10.703c-1.433,3.333 -3.399,6.25 -5.899,8.75c-2.5,2.5 -5.417,4.466 -8.75,5.899c-3.333,1.432 -6.901,2.148 -10.703,2.148Zm-3.516,-37.031c0.521,-0.313 0.912,-0.638 1.172,-0.977c0.261,-0.338 0.391,-0.716 0.391,-1.133c0,-0.26 -0.039,-0.494 -0.117,-0.703c-0.078,-0.208 -0.222,-0.416 -0.43,-0.625c-0.156,-0.156 -0.352,-0.273 -0.586,-0.351c-0.234,-0.078 -0.482,-0.117 -0.742,-0.117c-0.677,0 -1.498,0.195 -2.461,0.585c-0.964,0.391 -2.044,0.977 -3.242,1.758c-1.459,0.938 -2.748,1.979 -3.867,3.125c-1.12,1.146 -2.123,2.396 -3.008,3.75c-0.834,1.354 -1.459,2.696 -1.875,4.024c-0.417,1.328 -0.625,2.643 -0.625,3.945c0,0.625 0.052,1.25 0.156,1.875c0.104,0.625 0.286,1.224 0.547,1.797c0.208,0.625 0.482,1.198 0.82,1.719c0.339,0.52 0.69,0.989 1.055,1.406c0.833,0.937 1.758,1.641 2.773,2.109c1.016,0.469 2.097,0.703 3.243,0.703c1.25,0 2.369,-0.208 3.359,-0.625c0.989,-0.416 1.875,-1.067 2.656,-1.953c0.313,-0.312 0.599,-0.677 0.86,-1.093c0.26,-0.417 0.468,-0.86 0.625,-1.329c0.208,-0.468 0.351,-0.937 0.429,-1.406c0.078,-0.469 0.117,-0.937 0.117,-1.406c0,-0.99 -0.13,-1.914 -0.39,-2.774c-0.261,-0.859 -0.677,-1.627 -1.25,-2.304c-0.521,-0.729 -1.146,-1.302 -1.875,-1.719c-0.729,-0.417 -1.537,-0.677 -2.422,-0.781l-0.703,-0.078l-0.469,-0.078c-0.417,-0.053 -0.729,-0.157 -0.937,-0.313c-0.209,-0.156 -0.313,-0.365 -0.313,-0.625c0,-0.26 0.143,-0.612 0.43,-1.055c0.286,-0.442 0.69,-0.95 1.211,-1.523c0.573,-0.625 1.315,-1.25 2.226,-1.875c0.912,-0.625 1.992,-1.276 3.242,-1.953Zm19.766,0c0.521,-0.313 0.911,-0.638 1.172,-0.977c0.26,-0.338 0.391,-0.716 0.391,-1.133c0,-0.26 -0.053,-0.494 -0.157,-0.703c-0.104,-0.208 -0.234,-0.416 -0.39,-0.625c-0.209,-0.156 -0.417,-0.273 -0.625,-0.351c-0.209,-0.078 -0.469,-0.117 -0.782,-0.117c-0.677,0 -1.484,0.195 -2.421,0.585c-0.938,0.391 -2.032,0.977 -3.282,1.758c-1.406,0.938 -2.682,1.979 -3.828,3.125c-1.146,1.146 -2.135,2.396 -2.969,3.75c-0.885,1.354 -1.536,2.696 -1.953,4.024c-0.416,1.328 -0.625,2.643 -0.625,3.945c0,0.625 0.052,1.25 0.157,1.875c0.104,0.625 0.286,1.224 0.546,1.797c0.209,0.625 0.469,1.198 0.782,1.719c0.312,0.52 0.677,0.989 1.093,1.406c0.834,0.937 1.758,1.641 2.774,2.109c1.015,0.469 2.122,0.703 3.32,0.703c1.198,0 2.305,-0.208 3.32,-0.625c1.016,-0.416 1.915,-1.067 2.696,-1.953c0.312,-0.312 0.586,-0.677 0.82,-1.093c0.234,-0.417 0.456,-0.86 0.664,-1.329c0.208,-0.468 0.352,-0.937 0.43,-1.406c0.078,-0.469 0.117,-0.937 0.117,-1.406c0,-0.99 -0.143,-1.914 -0.43,-2.774c-0.286,-0.859 -0.69,-1.627 -1.211,-2.304c-0.573,-0.729 -1.224,-1.302 -1.953,-1.719c-0.729,-0.417 -1.536,-0.677 -2.422,-0.781l-0.625,-0.078l-0.546,-0.078c-0.417,-0.053 -0.73,-0.157 -0.938,-0.313c-0.208,-0.156 -0.312,-0.365 -0.312,-0.625c0,-0.26 0.143,-0.612 0.429,-1.055c0.287,-0.442 0.69,-0.95 1.211,-1.523c0.573,-0.625 1.328,-1.263 2.266,-1.914c0.937,-0.651 2.031,-1.289 3.281,-1.914Z" style="fill:#303030;fill-rule:nonzero;"/></svg>