<?xml version="1.0" encoding="UTF-8" standalone="no"?><!DOCTYPE svg PUBLIC "-//W3C//DTD SVG 1.1//EN" "http://www.w3.org/Graphics/SVG/1.1/DTD/svg11.dtd"><svg width="100%" height="100%" viewBox="0 0 65 65" version="1.1" xmlns="http://www.w3.org/2000/svg" xmlns:xlink="http://www.w3.org/1999/xlink" xml:space="preserve" xmlns:serif="http://www.serif.com/" style="fill-rule:evenodd;clip-rule:evenodd;stroke-linejoin:round;stroke-miterlimit:1.41421;"><path d="M32.5,0c-4.479,0 -8.698,0.846 -12.656,2.539c-3.959,1.693 -7.409,4.01 -10.352,6.953c-2.943,2.943 -5.26,6.393 -6.953,10.352c-1.693,3.958 -2.539,8.177 -2.539,12.656c0,4.479 0.846,8.698 2.539,12.656c1.693,3.959 4.01,7.409 6.953,10.352c2.943,2.943 6.393,5.26 10.352,6.953c3.958,1.693 8.177,2.539 12.656,2.539c4.479,0 8.698,-0.846 12.656,-2.539c3.959,-1.693 7.409,-4.01 10.352,-6.953c2.943,-2.943 5.26,-6.393 6.953,-10.352c1.693,-3.958 2.539,-8.177 2.539,-12.656c0,-4.479 -0.846,-8.698 -2.539,-12.656c-1.693,-3.959 -4.01,-7.409 -6.953,-10.352c-2.943,-2.943 -6.393,-5.26 -10.352,-6.953c-3.958,-1.693 -8.177,-2.539 -12.656,-2.539Zm0,60c-3.802,0 -7.37,-0.716 -10.703,-2.148c-3.333,-1.433 -6.25,-3.399 -8.75,-5.899c-2.5,-2.5 -4.466,-5.417 -5.899,-8.75c-1.432,-3.333 -2.148,-6.901 -2.148,-10.703c0,-3.802 0.716,-7.37 2.148,-10.703c1.433,-3.333 3.399,-6.25 5.899,-8.75c2.5,-2.5 5.417,-4.466 8.75,-5.899c3.333,-1.432 6.901,-2.148 10.703,-2.148c3.802,0 7.37,0.716 10.703,2.148c3.333,1.433 6.25,3.399 8.75,5.899c2.5,2.5 4.466,5.417 5.899,8.75c1.432,3.333 2.148,6.901 2.148,10.703c0,3.802 -0.716,7.37 -2.148,10.703c-1.433,3.333 -3.399,6.25 -5.899,8.75c-2.5,2.5 -5.417,4.466 -8.75,5.899c-3.333,1.432 -6.901,2.148 -10.703,2.148Z" style="fill:#303030;fill-rule:nonzero;"/><path d="M18,32.5c0,0.729 0.234,1.328 0.703,1.797c0.469,0.469 1.068,0.703 1.797,0.703l17.906,0l-10.625,10.781c-1.25,1.146 -1.276,2.318 -0.078,3.516c1.198,1.198 2.37,1.172 3.516,-0.078l15,-15c0.312,-0.209 0.521,-0.469 0.625,-0.781c0.208,-0.625 0.208,-1.25 0,-1.875c-0.104,-0.313 -0.313,-0.573 -0.625,-0.782l-15,-15c-1.146,-1.25 -2.318,-1.276 -3.516,-0.078c-1.198,1.198 -1.172,2.37 0.078,3.516l10.625,10.781l-17.906,0c-0.729,0 -1.328,0.234 -1.797,0.703c-0.469,0.469 -0.703,1.068 -0.703,1.797Z" style="fill:#303030;fill-rule:nonzero;"/></svg>